HIERARCHY
ROOT Hips
{
	OFFSET -14.64140 90.27770 -84.91600
	CHANNELS 6 Xposition Yposition Zposition Zrotation Xrotation Yrotation
	JOINT Spine
	{
		OFFSET 0.00000 13.20850 -1.60436
		CHANNELS 3 Zrotation Xrotation Yrotation
		JOINT Spine1
		{
			OFFSET 0.00000 8.61716 0.00000
			CHANNELS 3 Zrotation Xrotation Yrotation
			JOINT Spine2
			{
				OFFSET 0.00000 8.61717 0.00000
				CHANNELS 3 Zrotation Xrotation Yrotation
				JOINT Spine3
				{
					OFFSET 0.00000 8.61717 0.00000
					CHANNELS 3 Zrotation Xrotation Yrotation
					JOINT Neck
					{
						OFFSET 0.00000 11.07920 1.10792
						CHANNELS 3 Zrotation Xrotation Yrotation
						JOINT Neck1
						{
							OFFSET 0.00000 7.08032 0.00000
							CHANNELS 3 Zrotation Xrotation Yrotation
							JOINT Head
							{
								OFFSET 0.00000 7.08031 0.00000
								CHANNELS 3 Zrotation Xrotation Yrotation
								End site
								{
									OFFSET 0.00000 0.00000 0.00000
								}
							}
						}
					}
					JOINT RightShoulder
					{
						OFFSET -0.01000 7.91373 5.19711
						CHANNELS 3 Zrotation Xrotation Yrotation
						JOINT RightArm
						{
							OFFSET -18.41580 0.00000 0.00000
							CHANNELS 3 Zrotation Xrotation Yrotation
							JOINT RightForeArm
							{
								OFFSET -29.11090 0.00000 0.00000
								CHANNELS 3 Zrotation Xrotation Yrotation
								JOINT RightHand
								{
									OFFSET -24.65040 0.00000 0.00000
									CHANNELS 3 Zrotation Xrotation Yrotation
									JOINT RightHandThumb1
									{
										OFFSET -5.35114 -0.85590 3.97906
										CHANNELS 3 Zrotation Xrotation Yrotation
										JOINT RightHandThumb2
										{
											OFFSET -4.52789 0.00000 0.00000
											CHANNELS 3 Zrotation Xrotation Yrotation
											JOINT RightHandThumb3
											{
												OFFSET -2.46976 0.00000 0.00000
												CHANNELS 3 Zrotation Xrotation Yrotation
												End site
												{
													OFFSET 0.00000 0.00000 0.00000
												}
											}
										}
									}
									JOINT RightHandIndex1
									{
										OFFSET -14.26970 0.00000 2.88139
										CHANNELS 3 Zrotation Xrotation Yrotation
										JOINT RightHandIndex2
										{
											OFFSET -5.48836 0.00000 0.00000
											CHANNELS 3 Zrotation Xrotation Yrotation
											JOINT RightHandIndex3
											{
												OFFSET -3.01859 0.00000 0.00000
												CHANNELS 3 Zrotation Xrotation Yrotation
												End site
												{
													OFFSET 0.00000 0.00000 0.00000
												}
											}
										}
									}
									JOINT RightHandMiddle1
									{
										OFFSET -14.26970 0.00000 -0.09147
										CHANNELS 3 Zrotation Xrotation Yrotation
										JOINT RightHandMiddle2
										{
											OFFSET -6.17441 0.00000 0.00000
											CHANNELS 3 Zrotation Xrotation Yrotation
											JOINT RightHandMiddle3
											{
												OFFSET -3.56743 0.00000 0.00000
												CHANNELS 3 Zrotation Xrotation Yrotation
												End site
												{
													OFFSET 0.00000 0.00000 0.00000
												}
											}
										}
									}
									JOINT RightHandRing1
									{
										OFFSET -12.69180 0.00000 -3.06433
										CHANNELS 3 Zrotation Xrotation Yrotation
										JOINT RightHandRing2
										{
											OFFSET -5.62556 0.00000 0.00000
											CHANNELS 3 Zrotation Xrotation Yrotation
											JOINT RightHandRing3
											{
												OFFSET -3.56744 0.00000 0.00000
												CHANNELS 3 Zrotation Xrotation Yrotation
												End site
												{
													OFFSET 0.00000 0.00000 0.00000
												}
											}
										}
									}
									JOINT RightHandPinky1
									{
										OFFSET -11.11390 0.00000 -6.03719
										CHANNELS 3 Zrotation Xrotation Yrotation
										JOINT RightHandPinky2
										{
											OFFSET -4.52789 0.00000 0.00000
											CHANNELS 3 Zrotation Xrotation Yrotation
											JOINT RightHandPinky3
											{
												OFFSET -2.46976 0.00000 0.00000
												CHANNELS 3 Zrotation Xrotation Yrotation
												End site
												{
													OFFSET 0.00000 0.00000 0.00000
												}
											}
										}
									}
								}
							}
						}
					}
					JOINT LeftShoulder
					{
						OFFSET 0.01000 7.91373 5.19711
						CHANNELS 3 Zrotation Xrotation Yrotation
						JOINT LeftArm
						{
							OFFSET 18.41580 0.00000 0.00000
							CHANNELS 3 Zrotation Xrotation Yrotation
							JOINT LeftForeArm
							{
								OFFSET 29.11090 0.00000 0.00000
								CHANNELS 3 Zrotation Xrotation Yrotation
								JOINT LeftHand
								{
									OFFSET 24.65040 0.00000 0.00000
									CHANNELS 3 Zrotation Xrotation Yrotation
									JOINT LeftHandThumb1
									{
										OFFSET 5.35114 -0.85590 3.97906
										CHANNELS 3 Zrotation Xrotation Yrotation
										JOINT LeftHandThumb2
										{
											OFFSET 4.52789 0.00000 0.00000
											CHANNELS 3 Zrotation Xrotation Yrotation
											JOINT LeftHandThumb3
											{
												OFFSET 2.46977 0.00000 0.00000
												CHANNELS 3 Zrotation Xrotation Yrotation
												End site
												{
													OFFSET 0.00000 0.00000 0.00000
												}
											}
										}
									}
									JOINT LeftHandIndex1
									{
										OFFSET 14.26970 0.00000 2.88139
										CHANNELS 3 Zrotation Xrotation Yrotation
										JOINT LeftHandIndex2
										{
											OFFSET 5.48836 0.00000 0.00000
											CHANNELS 3 Zrotation Xrotation Yrotation
											JOINT LeftHandIndex3
											{
												OFFSET 3.01859 0.00000 0.00000
												CHANNELS 3 Zrotation Xrotation Yrotation
												End site
												{
													OFFSET 0.00000 0.00000 0.00000
												}
											}
										}
									}
									JOINT LeftHandMiddle1
									{
										OFFSET 14.26970 0.00000 -0.09147
										CHANNELS 3 Zrotation Xrotation Yrotation
										JOINT LeftHandMiddle2
										{
											OFFSET 6.17440 0.00000 0.00000
											CHANNELS 3 Zrotation Xrotation Yrotation
											JOINT LeftHandMiddle3
											{
												OFFSET 3.56744 0.00000 0.00000
												CHANNELS 3 Zrotation Xrotation Yrotation
												End site
												{
													OFFSET 0.00000 0.00000 0.00000
												}
											}
										}
									}
									JOINT LeftHandRing1
									{
										OFFSET 12.69180 0.00000 -3.06433
										CHANNELS 3 Zrotation Xrotation Yrotation
										JOINT LeftHandRing2
										{
											OFFSET 5.62556 0.00000 0.00000
											CHANNELS 3 Zrotation Xrotation Yrotation
											JOINT LeftHandRing3
											{
												OFFSET 3.56744 0.00000 0.00000
												CHANNELS 3 Zrotation Xrotation Yrotation
												End site
												{
													OFFSET 0.00000 0.00000 0.00000
												}
											}
										}
									}
									JOINT LeftHandPinky1
									{
										OFFSET 11.11390 0.00000 -6.03719
										CHANNELS 3 Zrotation Xrotation Yrotation
										JOINT LeftHandPinky2
										{
											OFFSET 4.52789 0.00000 0.00000
											CHANNELS 3 Zrotation Xrotation Yrotation
											JOINT LeftHandPinky3
											{
												OFFSET 2.46976 0.00000 0.00000
												CHANNELS 3 Zrotation Xrotation Yrotation
												End site
												{
													OFFSET 0.00000 0.00000 0.00000
												}
											}
										}
									}
								}
							}
						}
					}
					JOINT pCube4
					{
						OFFSET 0.00000 10.91090 1.10792
						CHANNELS 3 Zrotation Xrotation Yrotation
						End site
						{
							OFFSET 0.00000 0.00000 0.00000
						}
					}
				}
			}
		}
	}
	JOINT RightUpLeg
	{
		OFFSET -9.98441 0.00000 0.00000
		CHANNELS 3 Zrotation Xrotation Yrotation
		JOINT RightLeg
		{
			OFFSET 0.00000 -42.11790 0.00000
			CHANNELS 3 Zrotation Xrotation Yrotation
			JOINT RightFoot
			{
				OFFSET 0.00000 -45.00020 -0.00001
				CHANNELS 3 Zrotation Xrotation Yrotation
				JOINT RightForeFoot
				{
					OFFSET 0.00000 -3.74820 0.00000
					CHANNELS 3 Zrotation Xrotation Yrotation
					JOINT RightToeBase
					{
						OFFSET 0.00000 0.06325 14.43120
						CHANNELS 3 Zrotation Xrotation Yrotation
						End site
						{
							OFFSET 0.00000 0.00000 0.00000
						}
					}
				}
			}
		}
	}
	JOINT LeftUpLeg
	{
		OFFSET 9.98441 0.00000 0.00000
		CHANNELS 3 Zrotation Xrotation Yrotation
		JOINT LeftLeg
		{
			OFFSET 0.00000 -42.11800 0.00000
			CHANNELS 3 Zrotation Xrotation Yrotation
			JOINT LeftFoot
			{
				OFFSET 0.00000 -45.00070 0.00000
				CHANNELS 3 Zrotation Xrotation Yrotation
				JOINT LeftForeFoot
				{
					OFFSET 0.00000 -3.74824 0.00000
					CHANNELS 3 Zrotation Xrotation Yrotation
					JOINT LeftToeBase
					{
						OFFSET 0.00000 0.06325 14.43110
						CHANNELS 3 Zrotation Xrotation Yrotation
						End site
						{
							OFFSET 0.00000 0.00000 0.00000
						}
					}
				}
			}
		}
	}
}
MOTION
Frames: 4
Frame Time: 0.050000
0.0 0.0 0.0 -0.0 0.0 -0.0 2.261549195221058 2.5448582373640782 -2.213602958131082 -0.9432252910316229 3.898139988766398 0.4606851445402095 -0.7291058250196661 -0.809925729793531 -0.060932784188276 0.10931005587905532 -0.08497272982920254 -0.313235989698202 0.013676732058619861 12.585196832544158 -0.851681851989794 0.08126148055123485 -0.6512715841741422 -1.6435737479363823 0.3739592016323797 -16.481877563790004 -0.03488529734149093 -6.594038030505939 4.374761078903281 -15.593829823673094 70.71484871164718 18.284516347975245 -3.2624279731728083 -4.8343419467302455 14.333409428466657 92.47040368490647 11.335727077035235 -1.220526801507663 -3.8230972148412206 -2.36978 -0.201104 4.8479 1.23799e-06 -2.59538e-07 -3.99014e-06 1.1532e-06 8.61999e-07 -6.12582e-07 4.15954 -4.57969e-06 2.50103e-06 5.00605e-07 1.17626e-06 -1.09937e-06 5.00605e-07 1.17626e-06 -1.09937e-06 12.1951 -1.13344e-06 5.25921e-06 1.11309e-05 -1.18451e-06 -1.72079e-06 -4.5942e-07 3.14939e-07 3.09513e-07 18.091 -3.393e-06 6.28454e-07 7.95139e-16 1.27222e-14 1.19271e-15 -1.59028e-15 6.36111e-15 -0.0 37.0196 2.14169e-06 2.11229e-06 1.43697e-05 3.79404e-06 4.26277e-06 4.00592e-07 -1.38718e-06 -8.17273e-07 7.2248489848074415 3.8014353343200398 13.280198485649613 -65.88223275601439 29.130659160350444 12.847763538250984 1.9324222754523854 -1.2242069947455214 -82.63528693613137 -12.784010037505178 -0.24124355071297118 -0.5995835220991399 2.59029 -0.543726 -11.8472 -3.83086e-06 2.9981e-06 2.11798e-05 -6.2661e-07 -1.39035e-06 1.86693e-06 -2.91242 1.44339e-06 -3.63115e-06 -5.59715e-07 1.09034e-06 1.13377e-06 -5.59715e-07 1.09034e-06 1.13377e-06 -12.9985 4.90405e-06 -3.76457e-06 -1.33771e-06 -1.464e-06 3.19814e-06 -5.26079e-07 9.86454e-07 1.22523e-06 -18.6344 -1.21198e-06 -2.47337e-06 -1.25358e-05 -1.68607e-06 5.04235e-06 1.87336e-06 6.94431e-07 -4.39454e-06 -34.5048 5.85289e-08 -3.49365e-06 -7.95138e-15 1.27222e-14 4.77083e-15 4.77083e-15 0.0 1.59028e-15 -4.96962e-16 0.0 -5.96354e-16 -2.14252 4.04337 -7.87884 0.000736976 11.8398 0.022817 -8.95265 -13.7596 -17.195 0.0 0.0 -0.0 -3.49049e-07 11.7695 -1.17258e-06 -5.38847 -1.06001 14.489 -6.42443e-05 20.6219 -0.00813738 2.554 -6.64826 -6.50648 3.97569e-16 0.0 4.77083e-15 2.26877e-07 -4.83151 6.05402e-06
0.0 0.0 0.0 -0.0 0.0 -0.0 3.7811778092483594 2.5230335567547932 -2.82628980823672 -0.8759474614058508 3.9194592448372645 0.43249769291464285 -0.5331068010149712 -0.7426087489822594 0.030420394549138963 -0.11544269243851533 -0.4044243019281842 -0.12083028322358956 -0.43584114297929244 13.642779657098762 -0.4878745701667671 0.18728412111872822 -0.8475741111629018 0.47643351562491715 0.4286461253267589 -17.18628438690947 0.120983029528274 -8.628351573820956 5.568943381151472 -16.25338574363252 76.63211078667928 25.06051470940802 1.448358909302796 -5.601791165907137 9.940453198875021 104.6980900501969 12.833762031416684 -1.43972979087873 -3.837283666028319 -2.36978 -0.201104 4.8479 1.23799e-06 -2.59538e-07 -3.99014e-06 1.1532e-06 8.61999e-07 -6.12582e-07 4.15954 -4.57969e-06 2.50103e-06 5.00605e-07 1.17626e-06 -1.09937e-06 5.00605e-07 1.17626e-06 -1.09937e-06 12.1951 -1.13344e-06 5.25921e-06 1.11309e-05 -1.18451e-06 -1.72079e-06 -4.5942e-07 3.14939e-07 3.09513e-07 18.091 -3.393e-06 6.28454e-07 7.95139e-16 1.27222e-14 1.19271e-15 -1.59028e-15 6.36111e-15 -0.0 37.0196 2.14169e-06 2.11229e-06 1.43697e-05 3.79404e-06 4.26277e-06 4.00592e-07 -1.38718e-06 -8.17273e-07 9.854386317681172 5.002446233777392 13.483873795137386 -64.31286551588671 40.27731392624952 7.322188974051415 -0.21922352042209878 -15.575064124329161 -93.49198901925297 -17.739867260706248 -0.40178864865156244 -0.41646206056227947 2.59029 -0.543726 -11.8472 -3.83086e-06 2.9981e-06 2.11798e-05 -6.2661e-07 -1.39035e-06 1.86693e-06 -2.91242 1.44339e-06 -3.63115e-06 -5.59715e-07 1.09034e-06 1.13377e-06 -5.59715e-07 1.09034e-06 1.13377e-06 -12.9985 4.90405e-06 -3.76457e-06 -1.33771e-06 -1.464e-06 3.19814e-06 -5.26079e-07 9.86454e-07 1.22523e-06 -18.6344 -1.21198e-06 -2.47337e-06 -1.25358e-05 -1.68607e-06 5.04235e-06 1.87336e-06 6.94431e-07 -4.39454e-06 -34.5048 5.85289e-08 -3.49365e-06 -7.95138e-15 1.27222e-14 4.77083e-15 4.77083e-15 0.0 1.59028e-15 -4.96962e-16 0.0 -5.96354e-16 -2.14252 4.04337 -7.87884 0.000736976 11.8398 0.022817 -8.95265 -13.7596 -17.195 0.0 0.0 -0.0 -3.49049e-07 11.7695 -1.17258e-06 -5.38847 -1.06001 14.489 -6.42443e-05 20.6219 -0.00813738 2.554 -6.64826 -6.50648 3.97569e-16 0.0 4.77083e-15 2.26877e-07 -4.83151 6.05402e-06
0.0 0.0 0.0 -0.0 0.0 -0.0 4.3497819379597775 2.6447404585173007 -3.077054354910071 -0.8903147013409706 3.904844760350828 0.4298629360541859 -0.4727598814009274 -0.749097423049268 -0.012945102106658276 -0.2937401712008496 -0.5547509851439831 -0.06098812884428391 -0.8247260675470639 14.618791827419615 -0.06873345740870428 0.18482619009026405 -0.775736323724735 1.876806240278508 0.3627167049722487 -17.358822662607885 0.2139388370591901 -10.815392446817528 6.632621564328155 -15.940517337640186 78.65105724243521 35.21469030733961 9.47827016997061 -4.7682057186894875 9.311937567196146 112.4417027873232 11.570591671963598 -1.2983531560961945 -3.4804290418371937 -2.36978 -0.201104 4.8479 1.23799e-06 -2.59538e-07 -3.99014e-06 1.1532e-06 8.61999e-07 -6.12582e-07 4.15954 -4.57969e-06 2.50103e-06 5.00605e-07 1.17626e-06 -1.09937e-06 5.00605e-07 1.17626e-06 -1.09937e-06 12.1951 -1.13344e-06 5.25921e-06 1.11309e-05 -1.18451e-06 -1.72079e-06 -4.5942e-07 3.14939e-07 3.09513e-07 18.091 -3.393e-06 6.28454e-07 7.95139e-16 1.27222e-14 1.19271e-15 -1.59028e-15 6.36111e-15 -0.0 37.0196 2.14169e-06 2.11229e-06 1.43697e-05 3.79404e-06 4.26277e-06 4.00592e-07 -1.38718e-06 -8.17273e-07 12.21210635441765 5.927281476459301 13.045389929238365 -56.94260386137022 50.324453975906096 -6.0364258201822025 -3.8721020917247353 -18.591637666212485 -99.78018307250396 -18.489105639436406 -0.4136962732530913 -0.6261399675087604 2.59029 -0.543726 -11.8472 -3.83086e-06 2.9981e-06 2.11798e-05 -6.2661e-07 -1.39035e-06 1.86693e-06 -2.91242 1.44339e-06 -3.63115e-06 -5.59715e-07 1.09034e-06 1.13377e-06 -5.59715e-07 1.09034e-06 1.13377e-06 -12.9985 4.90405e-06 -3.76457e-06 -1.33771e-06 -1.464e-06 3.19814e-06 -5.26079e-07 9.86454e-07 1.22523e-06 -18.6344 -1.21198e-06 -2.47337e-06 -1.25358e-05 -1.68607e-06 5.04235e-06 1.87336e-06 6.94431e-07 -4.39454e-06 -34.5048 5.85289e-08 -3.49365e-06 -7.95138e-15 1.27222e-14 4.77083e-15 4.77083e-15 0.0 1.59028e-15 -4.96962e-16 0.0 -5.96354e-16 -2.14252 4.04337 -7.87884 0.000736976 11.8398 0.022817 -8.95265 -13.7596 -17.195 0.0 0.0 -0.0 -3.49049e-07 11.7695 -1.17258e-06 -5.38847 -1.06001 14.489 -6.42443e-05 20.6219 -0.00813738 2.554 -6.64826 -6.50648 3.97569e-16 0.0 4.77083e-15 2.26877e-07 -4.83151 6.05402e-06
0.0 0.0 0.0 -0.0 0.0 -0.0 3.9040291204221256 2.579936783486683 -2.930449851984736 -0.9552972069476339 3.9304374109829983 0.44097470220802576 -0.5540250788401718 -0.8989823600573407 -0.16544898209585457 -0.2936909745513286 -0.5422724936823624 -0.13229827548023493 -0.8573241788510959 15.315359290966928 0.02287492833080387 0.1228505820594223 -0.4766929117081337 1.8687195613554866 0.2762772695337676 -16.984159451664116 0.2052681426780522 -12.292396877282856 7.162411243072046 -15.217234223648935 73.65550430646893 41.643748113390394 18.601738436419126 -4.049628831499903 11.30502131041886 114.84050036338178 8.566868908577817 -0.849511740018268 -2.4543909592047015 -2.36978 -0.201104 4.8479 1.23799e-06 -2.59538e-07 -3.99014e-06 1.1532e-06 8.61999e-07 -6.12582e-07 4.15954 -4.57969e-06 2.50103e-06 5.00605e-07 1.17626e-06 -1.09937e-06 5.00605e-07 1.17626e-06 -1.09937e-06 12.1951 -1.13344e-06 5.25921e-06 1.11309e-05 -1.18451e-06 -1.72079e-06 -4.5942e-07 3.14939e-07 3.09513e-07 18.091 -3.393e-06 6.28454e-07 7.95139e-16 1.27222e-14 1.19271e-15 -1.59028e-15 6.36111e-15 -0.0 37.0196 2.14169e-06 2.11229e-06 1.43697e-05 3.79404e-06 4.26277e-06 4.00592e-07 -1.38718e-06 -8.17273e-07 13.401037295863462 6.281238573670678 12.476318287840366 -46.64961840967248 53.64663734722054 -19.722343590672136 -5.712671772663548 -15.345870982132867 -101.14905045922818 -15.006381039593363 -0.13737228799152976 -1.882740216528302 2.59029 -0.543726 -11.8472 -3.83086e-06 2.9981e-06 2.11798e-05 -6.2661e-07 -1.39035e-06 1.86693e-06 -2.91242 1.44339e-06 -3.63115e-06 -5.59715e-07 1.09034e-06 1.13377e-06 -5.59715e-07 1.09034e-06 1.13377e-06 -12.9985 4.90405e-06 -3.76457e-06 -1.33771e-06 -1.464e-06 3.19814e-06 -5.26079e-07 9.86454e-07 1.22523e-06 -18.6344 -1.21198e-06 -2.47337e-06 -1.25358e-05 -1.68607e-06 5.04235e-06 1.87336e-06 6.94431e-07 -4.39454e-06 -34.5048 5.85289e-08 -3.49365e-06 -7.95138e-15 1.27222e-14 4.77083e-15 4.77083e-15 0.0 1.59028e-15 -4.96962e-16 0.0 -5.96354e-16 -2.14252 4.04337 -7.87884 0.000736976 11.8398 0.022817 -8.95265 -13.7596 -17.195 0.0 0.0 -0.0 -3.49049e-07 11.7695 -1.17258e-06 -5.38847 -1.06001 14.489 -6.42443e-05 20.6219 -0.00813738 2.554 -6.64826 -6.50648 3.97569e-16 0.0 4.77083e-15 2.26877e-07 -4.83151 6.05402e-06
